<?xml version="1.0" encoding="UTF-8"?>
<svg width="29px" height="28px" viewBox="0 0 29 28" version="1.1" xmlns="http://www.w3.org/2000/svg" xmlns:xlink="http://www.w3.org/1999/xlink">
    <!-- Generator: sketchtool 53.2 (72643) - https://sketchapp.com -->
    <title>BD51277E-7894-4767-8C57-B927C76CCD81</title>
    <desc>Created with sketchtool.</desc>
    <g id="Symbols" stroke="none" stroke-width="1" fill="none" fill-rule="evenodd">
        <g id="Form/User/Developer" transform="translate(-21.000000, -44.000000)" fill="#737171">
            <g id="Icon/Developer" transform="translate(21.000000, 44.000000)">
                <g id="ic_developer_board_24px">
                    <path d="M29,9.33333333 L29,6.22222222 L26.1,6.22222222 L26.1,3.11111111 C26.1,1.4 24.795,0 23.2,0 L2.9,0 C1.305,0 0,1.4 0,3.11111111 L0,24.8888889 C0,26.6 1.305,28 2.9,28 L23.2,28 C24.795,28 26.1,26.6 26.1,24.8888889 L26.1,21.7777778 L29,21.7777778 L29,18.6666667 L26.1,18.6666667 L26.1,15.5555556 L29,15.5555556 L29,12.4444444 L26.1,12.4444444 L26.1,9.33333333 L29,9.33333333 Z M23.2,24.8888889 L2.9,24.8888889 L2.9,3.11111111 L23.2,3.11111111 L23.2,24.8888889 Z M5.8,15.5555556 L13.05,15.5555556 L13.05,21.7777778 L5.8,21.7777778 L5.8,15.5555556 Z M14.5,6.22222222 L20.3,6.22222222 L20.3,10.8888889 L14.5,10.8888889 L14.5,6.22222222 Z M5.8,6.22222222 L13.05,6.22222222 L13.05,14 L5.8,14 L5.8,6.22222222 Z M14.5,12.4444444 L20.3,12.4444444 L20.3,21.7777778 L14.5,21.7777778 L14.5,12.4444444 Z" id="Shape" fill-rule="nonzero"></path>
                </g>
            </g>
        </g>
    </g>
</svg>