<?xml version="1.0" encoding="UTF-8"?>
<svg width="28px" height="28px" viewBox="0 0 28 28" version="1.1" xmlns="http://www.w3.org/2000/svg" xmlns:xlink="http://www.w3.org/1999/xlink">
    <!-- Generator: sketchtool 53.2 (72643) - https://sketchapp.com -->
    <title>A40FAFC8-CED2-4C8F-9DF8-13442F8AAE37</title>
    <desc>Created with sketchtool.</desc>
    <g id="OpenSolar" stroke="none" stroke-width="1" fill="none" fill-rule="evenodd">
        <g id="SolarProjectPage/-Pasto" transform="translate(-154.000000, -2060.000000)">
            <g id="ic_attach_money_24px" transform="translate(155.000000, 2061.000000)">
                <path d="M13.8447937,12.0222222 C11.8379175,11.4977778 11.1925344,10.9555556 11.1925344,10.1111111 C11.1925344,9.14222222 12.0854617,8.46666667 13.5795678,8.46666667 C15.1532417,8.46666667 15.7367387,9.22222222 15.7897839,10.3333333 L17.7436149,10.3333333 C17.6817289,8.80444444 16.7534381,7.4 14.9056974,6.94666667 L14.9056974,5 L12.2534381,5 L12.2534381,6.92 C10.5383104,7.29333333 9.15913556,8.41333333 9.15913556,10.1288889 C9.15913556,12.1822222 10.8477407,13.2044444 13.3143418,13.8 C15.524558,14.3333333 15.9666012,15.1155556 15.9666012,15.9422222 C15.9666012,16.5555556 15.5333988,17.5333333 13.5795678,17.5333333 C11.7583497,17.5333333 11.0422397,16.7155556 10.9449902,15.6666667 L9,15.6666667 C9.10609037,17.6133333 10.5559921,18.7066667 12.2534381,19.0711111 L12.2534381,21 L14.9056974,21 L14.9056974,19.0888889 C16.629666,18.76 18,17.7555556 18,15.9333333 C18,13.4088889 15.8516699,12.5466667 13.8447937,12.0222222 Z" id="Path" fill="#4A4A4A" fill-rule="nonzero"></path>
                <circle id="Oval" stroke="#4A4A4A" stroke-width="2" cx="13" cy="13" r="13"></circle>
            </g>
        </g>
    </g>
</svg>