<?xml version="1.0" encoding="UTF-8"?>
<svg width="16px" height="20px" viewBox="0 0 16 20" version="1.1" xmlns="http://www.w3.org/2000/svg" xmlns:xlink="http://www.w3.org/1999/xlink">
    <!-- Generator: sketchtool 53.2 (72643) - https://sketchapp.com -->
    <title>F60152C1-929D-429E-A82B-CB237BE8DD03</title>
    <desc>Created with sketchtool.</desc>
    <g id="Symbols" stroke="none" stroke-width="1" fill="none" fill-rule="evenodd">
        <g id="Form/Entity/Non-Profit" transform="translate(-246.000000, -49.000000)" fill="#737171" fill-rule="nonzero">
            <g id="Icon/Add" transform="translate(246.000000, 49.000000)">
                <path d="M10,0 L2,0 C0.9,0 0.01,0.9 0.01,2 L0,18 C0,19.1 0.89,20 1.99,20 L14,20 C15.1,20 16,19.1 16,18 L16,6 L10,0 Z M12,14 L9,14 L9,17 L7,17 L7,14 L4,14 L4,12 L7,12 L7,9 L9,9 L9,12 L12,12 L12,14 Z M9,7 L9,1.5 L14.5,7 L9,7 Z" id="Shape"></path>
            </g>
        </g>
    </g>
</svg>