<?xml version="1.0" encoding="UTF-8"?>
<svg width="23px" height="22px" viewBox="0 0 23 22" version="1.1" xmlns="http://www.w3.org/2000/svg" xmlns:xlink="http://www.w3.org/1999/xlink">
    <!-- Generator: sketchtool 53.2 (72643) - https://sketchapp.com -->
    <title>B766B8E1-2A65-4FF5-8D65-1322A684F521</title>
    <desc>Created with sketchtool.</desc>
    <g id="Symbols" stroke="none" stroke-width="1" fill="none" fill-rule="evenodd">
        <g id="Form/Entity/Business1" transform="translate(-20.000000, -48.000000)" fill="#737171" fill-rule="nonzero">
            <g id="Individual">
                <g id="Icon/Business" transform="translate(20.000000, 48.000000)">
                    <path d="M11.5,4.88888889 L11.5,0 L0,0 L0,22 L23,22 L23,4.88888889 L11.5,4.88888889 Z M4.6,19.5555556 L2.3,19.5555556 L2.3,17.1111111 L4.6,17.1111111 L4.6,19.5555556 Z M4.6,14.6666667 L2.3,14.6666667 L2.3,12.2222222 L4.6,12.2222222 L4.6,14.6666667 Z M4.6,9.77777778 L2.3,9.77777778 L2.3,7.33333333 L4.6,7.33333333 L4.6,9.77777778 Z M4.6,4.88888889 L2.3,4.88888889 L2.3,2.44444444 L4.6,2.44444444 L4.6,4.88888889 Z M9.2,19.5555556 L6.9,19.5555556 L6.9,17.1111111 L9.2,17.1111111 L9.2,19.5555556 Z M9.2,14.6666667 L6.9,14.6666667 L6.9,12.2222222 L9.2,12.2222222 L9.2,14.6666667 Z M9.2,9.77777778 L6.9,9.77777778 L6.9,7.33333333 L9.2,7.33333333 L9.2,9.77777778 Z M9.2,4.88888889 L6.9,4.88888889 L6.9,2.44444444 L9.2,2.44444444 L9.2,4.88888889 Z M20.7,19.5555556 L11.5,19.5555556 L11.5,17.1111111 L13.8,17.1111111 L13.8,14.6666667 L11.5,14.6666667 L11.5,12.2222222 L13.8,12.2222222 L13.8,9.77777778 L11.5,9.77777778 L11.5,7.33333333 L20.7,7.33333333 L20.7,19.5555556 Z M18.4,9.77777778 L16.1,9.77777778 L16.1,12.2222222 L18.4,12.2222222 L18.4,9.77777778 Z M18.4,14.6666667 L16.1,14.6666667 L16.1,17.1111111 L18.4,17.1111111 L18.4,14.6666667 Z" id="Shape"></path>
                </g>
            </g>
        </g>
    </g>
</svg>