<?xml version="1.0" encoding="UTF-8"?>
<svg width="29px" height="28px" viewBox="0 0 29 28" version="1.1" xmlns="http://www.w3.org/2000/svg" xmlns:xlink="http://www.w3.org/1999/xlink">
    <!-- Generator: sketchtool 53.2 (72643) - https://sketchapp.com -->
    <title>5154AF46-346E-4FCE-B280-2E6E71490FAB</title>
    <desc>Created with sketchtool.</desc>
    <g id="Symbols" stroke="none" stroke-width="1" fill="none" fill-rule="evenodd">
        <g id="Form/User/Beneficiary" transform="translate(-21.000000, -44.000000)" fill="#737171">
            <g id="Icon/Beneficiary" transform="translate(21.000000, 44.000000)">
                <g id="ic_wb_sunny_24px">
                    <path d="M7.59272727,5.48493151 L5.22,3.19634703 L3.36136364,4.99908676 L5.72090909,7.28767123 L7.59272727,5.48493151 Z M3.95454545,12.7214612 L0,12.7214612 L0,15.2785388 L3.95454545,15.2785388 L3.95454545,12.7214612 Z M15.8181818,0 L13.1818182,0 L13.1818182,3.7716895 L15.8181818,3.7716895 L15.8181818,0 L15.8181818,0 Z M25.6386364,4.99908676 L23.78,3.19634703 L21.4204545,5.48493151 L23.2790909,7.28767123 L25.6386364,4.99908676 Z M21.4072727,22.5150685 L23.7668182,24.8164384 L25.6254545,23.0136986 L23.2527273,20.7251142 L21.4072727,22.5150685 Z M25.0454545,12.7214612 L25.0454545,15.2785388 L29,15.2785388 L29,12.7214612 L25.0454545,12.7214612 Z M14.5,6.32876712 C10.1368182,6.32876712 6.59090909,9.76803653 6.59090909,14 C6.59090909,18.2319635 10.1368182,21.6712329 14.5,21.6712329 C18.8631818,21.6712329 22.4090909,18.2319635 22.4090909,14 C22.4090909,9.76803653 18.8631818,6.32876712 14.5,6.32876712 Z M13.1818182,28 L15.8181818,28 L15.8181818,24.2283105 L13.1818182,24.2283105 L13.1818182,28 Z M3.36136364,23.0009132 L5.22,24.803653 L7.57954545,22.5022831 L5.72090909,20.6995434 L3.36136364,23.0009132 Z" id="Shape" fill-rule="nonzero"></path>
                </g>
            </g>
        </g>
    </g>
</svg>