<?xml version="1.0" encoding="UTF-8"?>
<svg width="23px" height="24px" viewBox="0 0 23 24" version="1.1" xmlns="http://www.w3.org/2000/svg" xmlns:xlink="http://www.w3.org/1999/xlink">
    <!-- Generator: sketchtool 53.2 (72643) - https://sketchapp.com -->
    <title>6C556B79-2490-4B2B-97A1-0B51F20BFD3D</title>
    <desc>Created with sketchtool.</desc>
    <g id="Symbols" stroke="none" stroke-width="1" fill="none" fill-rule="evenodd" stroke-linecap="square">
        <g id="Form/Entity/Coop" transform="translate(-22.000000, -47.000000)" stroke="#737171">
            <g id="Individual">
                <g id="Icon/Coop" transform="translate(23.000000, 48.000000)">
                    <g id="multiple-11">
                        <path d="M2.86363636,6 L2.86363636,6 C1.80886364,6 0.954545455,5.105 0.954545455,4 L0.954545455,4 C0.954545455,2.895 1.80886364,2 2.86363636,2 L2.86363636,2 C3.91840909,2 4.77272727,2.895 4.77272727,4 L4.77272727,4 C4.77272727,5.105 3.91840909,6 2.86363636,6 Z" id="Path" stroke-width="2"></path>
                        <path d="M4.77272727,20 L1.90909091,20 L1.90909091,16 L0,16 L0,11 C0,9.895 0.854318182,9 1.90909091,9 L2.86363636,9" id="Path" stroke-width="2"></path>
                        <path d="M18.1363636,6 L18.1363636,6 C19.1911364,6 20.0454545,5.105 20.0454545,4 L20.0454545,4 C20.0454545,2.895 19.1911364,2 18.1363636,2 L18.1363636,2 C17.0815909,2 16.2272727,2.895 16.2272727,4 L16.2272727,4 C16.2272727,5.105 17.0815909,6 18.1363636,6 Z" id="Path" stroke-width="2"></path>
                        <path d="M16.2272727,20 L19.0909091,20 L19.0909091,16 L21,16 L21,11 C21,9.895 20.1456818,9 19.0909091,9 L18.1363636,9" id="Path" stroke-width="2"></path>
                        <path d="M10.5,6 L10.5,6 C8.91831818,6 7.63636364,4.657 7.63636364,3 L7.63636364,3 C7.63636364,1.343 8.91831818,0 10.5,0 L10.5,0 C12.0816818,0 13.3636364,1.343 13.3636364,3 L13.3636364,3 C13.3636364,4.657 12.0816818,6 10.5,6 Z" id="Path" stroke-width="2"></path>
                        <path d="M13.3636364,22 L7.63636364,22 L7.63636364,16 L5.72727273,16 L5.72727273,11 C5.72727273,9.895 6.58159091,9 7.63636364,9 L13.3636364,9 C14.4184091,9 15.2727273,9.895 15.2727273,11 L15.2727273,17 L13.3636364,17 L13.3636364,22 Z" id="Path" stroke-width="2"></path>
                    </g>
                </g>
            </g>
        </g>
    </g>
</svg>