<?xml version="1.0" encoding="UTF-8"?>
<svg width="37px" height="48px" viewBox="0 0 37 48" version="1.1" xmlns="http://www.w3.org/2000/svg" xmlns:xlink="http://www.w3.org/1999/xlink">
    <!-- Generator: sketchtool 53.2 (72643) - https://sketchapp.com -->
    <title>2A0FC0C2-90A2-4A22-8F92-DAB5C25265DE</title>
    <desc>Created with sketchtool.</desc>
    <g id="OpenSolar" stroke="none" stroke-width="1" fill="none" fill-rule="evenodd" stroke-linecap="square">
        <g id="SolarProjectPage/-Pasto" transform="translate(-715.000000, -9336.000000)" stroke="#111111" stroke-width="2">
            <g id="lock" transform="translate(716.000000, 9337.000000)">
                <path d="M26.8666667,15 L26.8666667,9.47368421 C26.8666667,4.24184211 22.8369167,0 17.8666667,0 L17.8666667,0 C12.8964167,0 8.86666667,4.24184211 8.86666667,9.47368421 L8.86666667,15" id="Path"></path>
                <path d="M31.7757576,46 L3.95757576,46 C2.25062121,46 0.866666667,44.607 0.866666667,42.8888889 L0.866666667,21.1111111 C0.866666667,19.393 2.25062121,18 3.95757576,18 L31.7757576,18 C33.4827121,18 34.8666667,19.393 34.8666667,21.1111111 L34.8666667,42.8888889 C34.8666667,44.607 33.4827121,46 31.7757576,46 Z" id="Path"></path>
                <path d="M18.3666667,34 L18.3666667,39" id="Path"></path>
                <circle id="Oval" cx="18.3666667" cy="29.5" r="4.5"></circle>
            </g>
        </g>
    </g>
</svg>