<?xml version="1.0"?>
<svg xmlns="http://www.w3.org/2000/svg" xmlns:xlink="http://www.w3.org/1999/xlink" version="1.1" id="Capa_1" x="0px" y="0px" viewBox="0 0 53 53" style="enable-background:new 0 0 53 53;" xml:space="preserve" width="512px" height="512px" class=""><g><g>
	<g>
		<path d="M2,13.5h49c1.104,0,2-0.896,2-2s-0.896-2-2-2H2c-1.104,0-2,0.896-2,2S0.896,13.5,2,13.5z" data-original="#000000" class="active-path" data-old_color="#4a4a4a" fill="#4a4a4a"/>
		<path d="M2,28.5h49c1.104,0,2-0.896,2-2s-0.896-2-2-2H2c-1.104,0-2,0.896-2,2S0.896,28.5,2,28.5z" data-original="#000000" class="active-path" data-old_color="#4a4a4a" fill="#4a4a4a"/>
		<path d="M2,43.5h49c1.104,0,2-0.896,2-2s-0.896-2-2-2H2c-1.104,0-2,0.896-2,2S0.896,43.5,2,43.5z" data-original="#000000" class="active-path" data-old_color="#4a4a4a" fill="#4a4a4a"/>
	</g>
</g></g> </svg>
