<?xml version="1.0" encoding="UTF-8"?>
<svg width="29px" height="17px" viewBox="0 0 29 17" version="1.1" xmlns="http://www.w3.org/2000/svg" xmlns:xlink="http://www.w3.org/1999/xlink">
    <!-- Generator: sketchtool 53.2 (72643) - https://sketchapp.com -->
    <title>FD3378D6-0943-4D10-82DB-5D2E637558DD</title>
    <desc>Created with sketchtool.</desc>
    <defs>
        <polygon id="path-1" points="0.000395023562 0.328 28.3254105 0.328 28.3254105 14.6306 0.000395023562 14.6306"></polygon>
        <polygon id="path-3" points="0 0.2577 28.326 0.2577 28.326 2 0 2"></polygon>
        <polygon id="path-5" points="0 16.6723 28.326 16.6723 28.326 1.0003 0 1.0003"></polygon>
    </defs>
    <g id="Symbols" stroke="none" stroke-width="1" fill="none" fill-rule="evenodd">
        <g id="Icon/Solar">
            <g id="Group-28">
                <g id="Group-3" transform="translate(0.000000, 0.672300)">
                    <mask id="mask-2" fill="white">
                        <use xlink:href="#path-1"></use>
                    </mask>
                    <g id="Clip-2"></g>
                    <path d="M0.4862,14.2576 L27.8412,14.2576 L21.1282,0.6986 L7.2442,0.6986 L0.4862,14.2576 Z M28.1402,14.6306 L0.1852,14.6306 C0.1222,14.6306 0.0622,14.5956 0.0282,14.5416 C-0.0058,14.4866 -0.0088,14.4196 0.0202,14.3606 L6.9622,0.4306 C6.9932,0.3666 7.0582,0.3276 7.1292,0.3276 L21.2432,0.3276 C21.3162,0.3276 21.3792,0.3676 21.4102,0.4316 L28.3052,14.3606 C28.3352,14.4196 28.3312,14.4866 28.2972,14.5416 C28.2642,14.5966 28.2042,14.6306 28.1402,14.6306 L28.1402,14.6306 Z" id="Fill-1" fill="#000000" mask="url(#mask-2)"></path>
                </g>
                <g id="Group-6" transform="translate(0.000000, 14.672300)">
                    <mask id="mask-4" fill="white">
                        <use xlink:href="#path-3"></use>
                    </mask>
                    <g id="Clip-5"></g>
                    <path d="M1.1913,1.6277 L27.1343,1.6277 L27.7953,0.6297 L0.5313,0.6297 L1.1913,1.6277 Z M27.2343,2.0007 L1.0913,2.0007 C1.0293,2.0007 0.9713,1.9677 0.9373,1.9167 L0.0313,0.5467 C-0.0067,0.4887 -0.0107,0.4157 0.0223,0.3557 C0.0543,0.2957 0.1183,0.2577 0.1853,0.2577 L28.1403,0.2577 C28.2093,0.2577 28.2713,0.2957 28.3033,0.3557 C28.3363,0.4157 28.3333,0.4887 28.2953,0.5467 L27.3893,1.9167 C27.3543,1.9677 27.2963,2.0007 27.2343,2.0007 L27.2343,2.0007 Z" id="Fill-4" fill="#000000" mask="url(#mask-4)"></path>
                </g>
                <polygon id="Fill-7" fill="#000000" points="7.3314 15.1613 6.9704 15.0723 10.4314 1.1403 10.7904 1.2313"></polygon>
                <polygon id="Fill-9" fill="#000000" points="13.9945 15.1164 13.9775 1.1864 14.3485 1.1864 14.3665 15.1164"></polygon>
                <polygon id="Fill-11" fill="#000000" points="20.9945 15.1594 17.5815 1.2304 17.9415 1.1414 21.3555 15.0724"></polygon>
                <mask id="mask-6" fill="white">
                    <use xlink:href="#path-5"></use>
                </mask>
                <g id="Clip-14"></g>
                <polygon id="Fill-13" fill="#000000" mask="url(#mask-6)" points="2.783 10.0883 25.565 10.0883 25.565 9.7173 2.783 9.7173"></polygon>
                <polygon id="Fill-15" fill="#000000" mask="url(#mask-6)" points="5.423 4.7913 23.045 4.7913 23.045 4.4193 5.423 4.4193"></polygon>
                <polygon id="Fill-16" fill="#000000" mask="url(#mask-6)" points="8.181 10.966 7.649 9.902 8.659 9.049 9.242 9.902"></polygon>
                <path d="M7.8046,9.9338 L8.2156,10.7578 L9.0816,9.8878 L8.6326,9.2318 L7.8046,9.9338 Z M8.1486,11.1758 L7.4966,9.8708 L8.6826,8.8658 L9.4026,9.9178 L8.1486,11.1758 Z" id="Fill-17" fill="#000000" mask="url(#mask-6)"></path>
                <polygon id="Fill-18" fill="#000000" mask="url(#mask-6)" points="9.4891 5.6613 8.9571 4.5993 9.9651 3.7443 10.5501 4.5993"></polygon>
                <path d="M9.1107,4.6296 L9.5237,5.4536 L10.3877,4.5836 L9.9407,3.9286 L9.1107,4.6296 Z M9.4547,5.8706 L8.8027,4.5676 L9.9897,3.5626 L10.7097,4.6136 L9.4547,5.8706 Z" id="Fill-19" fill="#000000" mask="url(#mask-6)"></path>
                <polygon id="Fill-20" fill="#000000" mask="url(#mask-6)" points="20.1678 10.966 20.6988 9.902 19.6908 9.049 19.1068 9.902"></polygon>
                <path d="M19.2684,9.8874 L20.1334,10.7584 L20.5444,9.9334 L19.7154,9.2314 L19.2684,9.8874 Z M20.2024,11.1754 L18.9464,9.9174 L19.6674,8.8654 L20.8534,9.8704 L20.2024,11.1754 Z" id="Fill-21" fill="#000000" mask="url(#mask-6)"></path>
                <polygon id="Fill-22" fill="#000000" mask="url(#mask-6)" points="18.8593 5.6613 19.3923 4.5993 18.3833 3.7443 17.8003 4.5993"></polygon>
                <path d="M17.9603,4.5832 L18.8263,5.4532 L19.2373,4.6292 L18.4083,3.9282 L17.9603,4.5832 Z M18.8943,5.8712 L17.6403,4.6132 L18.3593,3.5622 L19.5473,4.5672 L18.8943,5.8712 Z" id="Fill-23" fill="#000000" mask="url(#mask-6)"></path>
                <polygon id="Fill-24" fill="#000000" mask="url(#mask-6)" points="14.1718 10.8674 13.2638 9.9024 14.1718 8.9554 15.0798 9.9024"></polygon>
                <path d="M13.4359,9.9035 L14.1719,10.6865 L14.9089,9.9035 L14.1719,9.1345 L13.4359,9.9035 Z M14.1719,11.0475 L13.0939,9.9025 L14.1719,8.7765 L15.2489,9.9025 L14.1719,11.0475 Z" id="Fill-25" fill="#000000" mask="url(#mask-6)"></path>
                <polygon id="Fill-26" fill="#000000" mask="url(#mask-6)" points="14.1718 5.5612 13.2638 4.5972 14.1718 3.6492 15.0798 4.5972"></polygon>
                <path d="M13.4359,4.5969 L14.1719,5.3799 L14.9089,4.5969 L14.1719,3.8289 L13.4359,4.5969 Z M14.1719,5.7419 L13.0939,4.5969 L14.1719,3.4699 L15.2489,4.5969 L14.1719,5.7419 Z" id="Fill-27" fill="#000000" mask="url(#mask-6)"></path>
            </g>
        </g>
    </g>
</svg>