<svg id="Icon_Contractor" data-name="Icon/Contractor" xmlns="http://www.w3.org/2000/svg" xmlns:xlink="http://www.w3.org/1999/xlink" width="22" height="35" viewBox="0 0 22 35">
  <defs>
    <style>
      .cls-1 {
        fill: none;
      }

      .cls-2 {
        fill: rgba(0,0,0,0);
      }

      .cls-3 {
        fill: #1c1c1a;
      }

      .cls-4 {
        clip-path: url(#clip-path);
      }

      .cls-5 {
        fill: #ebecec;
      }

      .cls-6 {
        fill: #fff;
      }
    </style>
    <clipPath id="clip-path">
      <path id="Clip_4" data-name="Clip 4" class="cls-1" d="M0,33.879H20.687V0H0Z"/>
    </clipPath>
  </defs>
  <rect id="Icon_Contractor_background" data-name="Icon/Contractor background" class="cls-2" width="22" height="35"/>
  <g id="Group_23" data-name="Group 23" transform="translate(0 0)">
    <path id="Fill_1" data-name="Fill 1" class="cls-3" d="M14.058,16.779a.568.568,0,0,1-.5-.288.591.591,0,0,1,.2-.8l2.828-1.708V1.175H3.846L.871,2.971a.572.572,0,0,1-.789-.206.593.593,0,0,1,.2-.805L3.394.081A.572.572,0,0,1,3.688,0h13.48a.582.582,0,0,1,.577.587V14.314a.59.59,0,0,1-.282.505L14.353,16.7a.568.568,0,0,1-.294.083" transform="translate(0.698 17.099)"/>
    <path id="Clip_4-2" data-name="Clip 4" class="cls-1" d="M0,33.879H20.687V0H0Z"/>
    <g id="Group_23-2" data-name="Group 23" class="cls-4">
      <path id="Fill_3" data-name="Fill 3" class="cls-5" d="M0,13.727H13.482V0H0Z" transform="translate(1.275 19.564)"/>
      <path id="Fill_5" data-name="Fill 5" class="cls-3" d="M14.058,14.9H.577A.583.583,0,0,1,0,14.314V.588A.583.583,0,0,1,.577,0H14.058a.583.583,0,0,1,.577.588V14.314A.583.583,0,0,1,14.058,14.9ZM1.153,1.174V13.726H13.481V1.174Z" transform="translate(0.699 18.977)"/>
      <path id="Fill_6" data-name="Fill 6" class="cls-3" d="M.576,3.052a.568.568,0,0,1-.5-.288.593.593,0,0,1,.2-.805L3.392.082a.572.572,0,0,1,.791.206.594.594,0,0,1-.2.805L.871,2.97a.568.568,0,0,1-.294.083" transform="translate(14.18 17.099)"/>
      <path id="Fill_7" data-name="Fill 7" d="M3.484,7.1A3.519,3.519,0,0,1,0,3.548,3.518,3.518,0,0,1,3.484,0,3.519,3.519,0,0,1,6.97,3.548,3.52,3.52,0,0,1,3.484,7.1" transform="translate(4.531 23.155)"/>
      <path id="Fill_8" data-name="Fill 8" class="cls-6" d="M3.395,0A3.431,3.431,0,0,0,0,3.459,3.431,3.431,0,0,0,3.395,6.917a3.433,3.433,0,0,0,3.4-3.458A3.434,3.434,0,0,0,3.395,0" transform="translate(4.62 23.244)"/>
      <path id="Fill_9" data-name="Fill 9" d="M.35.675H.09A.089.089,0,0,1,0,.588v-.5A.087.087,0,0,1,.09,0H.35A.089.089,0,0,1,.442.088v.5A.087.087,0,0,1,.35.675Z" transform="translate(6.641 28.258)"/>
      <path id="Fill_10" data-name="Fill 10" d="M.351.675H.089A.087.087,0,0,1,0,.588v-.5A.088.088,0,0,1,.089,0H.351a.088.088,0,0,1,.09.088v.5A.089.089,0,0,1,.351.675Z" transform="translate(7.283 28.258)"/>
      <path id="Fill_11" data-name="Fill 11" d="M.35.675H.089A.088.088,0,0,1,0,.588v-.5A.087.087,0,0,1,.089,0H.35a.087.087,0,0,1,.09.088v.5A.089.089,0,0,1,.35.675Z" transform="translate(7.925 28.258)"/>
      <path id="Fill_12" data-name="Fill 12" d="M.35.675H.09A.089.089,0,0,1,0,.588v-.5A.087.087,0,0,1,.09,0H.35A.087.087,0,0,1,.442.088v.5A.088.088,0,0,1,.35.675Z" transform="translate(8.566 28.258)"/>
      <path id="Fill_13" data-name="Fill 13" d="M.35.675H.088A.086.086,0,0,1,0,.588v-.5A.086.086,0,0,1,.088,0H.35a.088.088,0,0,1,.09.088v.5A.09.09,0,0,1,.35.675Z" transform="translate(9.21 28.258)"/>
      <path id="Fill_14" data-name="Fill 14" d="M3.969,8.077A4.009,4.009,0,0,1,0,4.037,4.008,4.008,0,0,1,3.969,0,4.008,4.008,0,0,1,7.937,4.037,4.009,4.009,0,0,1,3.969,8.077Zm0-7.988A3.918,3.918,0,0,0,.09,4.037,3.92,3.92,0,0,0,3.969,7.988,3.919,3.919,0,0,0,7.846,4.037,3.918,3.918,0,0,0,3.969.088Z" transform="translate(4.047 22.665)"/>
      <path id="Fill_15" data-name="Fill 15" d="M.985,2A1,1,0,0,1,0,1,1,1,0,0,1,.985,0a1,1,0,0,1,.984,1A.994.994,0,0,1,.985,2Zm0-1.916A.907.907,0,0,0,.088,1a.906.906,0,0,0,.9.912A.9.9,0,0,0,1.88,1,.906.906,0,0,0,.985.088Z" transform="translate(7.03 25.56)"/>
      <path id="Fill_16" data-name="Fill 16" d="M.581.282a.3.3,0,0,1,.3.3.3.3,0,0,1-.3.305.3.3,0,0,1-.3-.305.3.3,0,0,1,.3-.3" transform="translate(7.433 25.976)"/>
      <path id="Fill_17" data-name="Fill 17" d="M1.676,0,0,2.615l.115.094L1.72,0Z" transform="translate(8.015 23.853)"/>
      <path id="Fill_18" data-name="Fill 18" d="M3.414,1.475H.046A.046.046,0,0,1,0,1.428V.045A.045.045,0,0,1,.046,0H3.414A.045.045,0,0,1,3.46.045V1.428A.046.046,0,0,1,3.414,1.475ZM.089.089v1.3H3.373V.089Z" transform="translate(6.388 27.831)"/>
      <path id="Exclusion_336" data-name="Exclusion 336" d="M6.928,3.525h0l-.526,0V3.46l.527-.006v.07ZM.572,3.019h0L.048,2.928c0-.014.006-.028.009-.043s0-.02.006-.029l.519.1c0,.01,0,.02,0,.03s0,.021,0,.032Zm.137-.535h0L.213,2.3l.007-.02c.005-.016.011-.031.017-.047l.494.2-.007.017a.366.366,0,0,1-.015.038Zm.234-.5h0L.488,1.711C.5,1.7.5,1.692.506,1.683a.355.355,0,0,1,.02-.031l.449.286-.011.018L.956,1.97l-.012.018Zm.319-.445h0l-.4-.357a.633.633,0,0,0,.047-.055L1.3,1.5,1.3,1.508l-.006.007-.006.007-.02.022Zm.392-.378h0L1.329.742,1.357.718,1.366.711,1.384.7l.319.431-.024.02-.024.019Zm.46-.3,0,0L1.866.389A.315.315,0,0,1,1.9.369L1.918.362,1.931.355l.235.481L2.137.854l-.005,0-.007,0L2.113.867Zm.5-.211h0L2.457.14,2.48.134,2.527.121,2.67.641l-.033.01-.006,0L2.614.66Zm.53-.113h0L3.085.011h.007l.03,0h.012l.022,0L3.2.544H3.187l-.043,0Z" transform="translate(4.55 23.184)"/>
      <path id="Path" d="M.308.555c0-.022,0-.048,0-.073V.47H.838V.545Z" transform="translate(4.243 26.22)"/>
      <path id="Fill_20" data-name="Fill 20" class="cls-3" d="M0,1.349a4.347,4.347,0,0,1,6.3,0L4.918,2.956a2.465,2.465,0,0,0-3.553,0Z" transform="translate(7.104 10.235)"/>
      <path id="Fill_21" data-name="Fill 21" class="cls-3" d="M0,2.86a9.745,9.745,0,0,1,13.794,0l-1.379,1.4a7.639,7.639,0,0,0-10.835,0Z" transform="translate(3.344 5.116)"/>
      <path id="Fill_22" data-name="Fill 22" class="cls-3" d="M0,4.365a14.438,14.438,0,0,1,20.687,0L19.3,5.77a12.554,12.554,0,0,0-17.92,0Z" transform="translate(0 -0.001)"/>
    </g>
  </g>
</svg>
