<svg xmlns="http://www.w3.org/2000/svg" xmlns:xlink="http://www.w3.org/1999/xlink" width="32" height="30" viewBox="0 0 32 30">
    <defs>
        <path id="a" d="M0 0h26v9H13v17H0z"/>
    </defs>
    <g fill="none" fill-rule="evenodd">
        <mask id="b" fill="#fff">
            <use xlink:href="#a"/>
        </mask>
        <rect width="19" height="19" x="5.5" y="4.5" stroke="#2961a2" mask="url(#b)" rx="2"/>
        <g stroke="#2961a2">
            <path d="M30.475 17.718l-1.568-2.714-2.233.897-.227-.174a5.508 5.508 0 0 0-1.274-.74l-.265-.108-.04-.283-.301-2.096h-3.13l-.341 2.38-.265.108a5.806 5.806 0 0 0-1.28.743l-.225.169-.26-.105-1.969-.79-1.568 2.713 1.893 1.481-.035.281a5.965 5.965 0 0 0-.054.744c0 .222.019.46.054.744l.035.282-.223.174-1.67 1.307 1.568 2.713 2.233-.896.226.174c.402.309.825.555 1.275.74l.265.108.04.283.3 2.096h3.13l.342-2.38.265-.108a5.806 5.806 0 0 0 1.28-.743l.224-.169.261.105 1.968.79 1.57-2.713-1.895-1.481.035-.282a5.84 5.84 0 0 0 .054-.744 5.84 5.84 0 0 0-.054-.744l-.035-.28.224-.175 1.67-1.307zm-1.609-2.783l-.003-.006a.14.14 0 0 0 .003.006zm-7.418-2.515a.09.09 0 0 0 0-.004v.004zm-4.31 13.094l.003.006a.14.14 0 0 0-.004-.006zm4.311 2.523l.001.004v-.004zm3.106-.008a.09.09 0 0 0 0 .003v-.003zm-1.553-4.426a3.382 3.382 0 0 1-3.379-3.379 3.382 3.382 0 0 1 3.379-3.378 3.382 3.382 0 0 1 3.378 3.378 3.382 3.382 0 0 1-3.378 3.379z"/>
        </g>
    </g>
</svg>
