<?xml version="1.0" encoding="UTF-8"?>
<svg width="20px" height="24px" viewBox="0 0 20 24" version="1.1" xmlns="http://www.w3.org/2000/svg" xmlns:xlink="http://www.w3.org/1999/xlink">
    <!-- Generator: sketchtool 53.2 (72643) - https://sketchapp.com -->
    <title>638A887D-3BB2-4931-8280-4CEE48D49B12</title>
    <desc>Created with sketchtool.</desc>
    <g id="Symbols" stroke="none" stroke-width="1" fill="none" fill-rule="evenodd">
        <g id="Table/FullWidth/Terms6Rows" transform="translate(-1236.000000, -260.000000)" fill="#AAAEB3">
            <g id="Items" transform="translate(144.000000, 260.000000)">
                <g id="Item1">
                    <g id="Icon/Download" transform="translate(1092.000000, 0.000000)">
                        <g id="Download-Icon">
                            <g id="Group" transform="translate(5.647059, 8.470588)" fill-rule="nonzero">
                                <path d="M3.98541176,9.02541176 L3.98541176,9.02541176 C3.79058824,9.02541176 3.63247059,8.86729412 3.63247059,8.67247059 L3.63317647,0.710823529 C3.63317647,0.516 3.79129412,0.357882353 3.98611765,0.357882353 L3.98611765,0.357882353 C4.18094118,0.357882353 4.33905882,0.516 4.33905882,0.710823529 L4.33835294,8.67247059 C4.33835294,8.86729412 4.18023529,9.02541176 3.98541176,9.02541176 Z" id="Shape"></path>
                                <path d="M3.98541176,9.02541176 C3.89505882,9.02541176 3.80470588,8.99082353 3.73552941,8.92235294 L0.691058824,5.87788235 C0.553411765,5.74023529 0.553411765,5.51647059 0.691058824,5.37882353 C0.828705882,5.24117647 1.05247059,5.24117647 1.19011765,5.37882353 L3.98470588,8.17341176 L6.77929412,5.37882353 C6.91694118,5.24117647 7.14070588,5.24117647 7.27835294,5.37882353 C7.416,5.51647059 7.416,5.74023529 7.27835294,5.87788235 L4.23388235,8.92235294 C4.16611765,8.99082353 4.07576471,9.02541176 3.98541176,9.02541176 Z" id="Shape"></path>
                            </g>
                            <g id="Group" fill-rule="nonzero">
                                <path d="M17.3491765,23.5009412 L1.91647059,23.5009412 C0.943764706,23.5009412 0.151764706,22.7096471 0.151764706,21.7362353 L0.151764706,1.76470588 C0.151764706,0.791294118 0.943764706,0 1.91647059,0 L13.1237647,0 C13.3185882,0 13.4767059,0.158117647 13.4767059,0.352941176 C13.4767059,0.547764706 13.3185882,0.705882353 13.1237647,0.705882353 L1.91647059,0.705882353 C1.33270588,0.705882353 0.857647059,1.18094118 0.857647059,1.76470588 L0.857647059,21.7362353 C0.857647059,22.32 1.33270588,22.7950588 1.91647059,22.7950588 L17.3491765,22.7950588 C17.9329412,22.7950588 18.408,22.32 18.408,21.7362353 L18.408,6.144 C18.408,5.94917647 18.5661176,5.79105882 18.7609412,5.79105882 C18.9557647,5.79105882 19.1138824,5.94917647 19.1138824,6.144 L19.1138824,21.7369412 C19.1138824,22.7096471 18.3225882,23.5009412 17.3491765,23.5009412 Z" id="Shape"></path>
                                <path d="M18.7609412,6.49694118 L13.1237647,6.49694118 C12.9289412,6.49694118 12.7708235,6.33882353 12.7708235,6.144 L12.7708235,0.506117647 C12.7708235,0.311294118 12.9289412,0.153176471 13.1237647,0.153176471 C13.3185882,0.153176471 13.4767059,0.311294118 13.4767059,0.506117647 L13.4767059,5.79035294 L18.7609412,5.79035294 C18.9557647,5.79035294 19.1138824,5.94847059 19.1138824,6.14329412 C19.1138824,6.33811765 18.9564706,6.49694118 18.7609412,6.49694118 Z" id="Shape"></path>
                                <path d="M18.7609412,6.49694118 C18.6691765,6.49694118 18.5774118,6.46094118 18.5082353,6.39035294 L12.8710588,0.6 C12.7355294,0.460941176 12.7383529,0.236470588 12.8781176,0.100941176 C13.0171765,-0.0352941176 13.2409412,-0.0317647059 13.3771765,0.108 L19.0143529,5.89835294 C19.1498824,6.03741176 19.1470588,6.26188235 19.0072941,6.39741176 C18.9388235,6.46376471 18.8498824,6.49694118 18.7609412,6.49694118 Z" id="Shape"></path>
                            </g>
                        </g>
                    </g>
                </g>
            </g>
        </g>
    </g>
</svg>