<?xml version="1.0" encoding="UTF-8"?>
<svg width="22px" height="22px" viewBox="0 0 22 22" version="1.1" xmlns="http://www.w3.org/2000/svg" xmlns:xlink="http://www.w3.org/1999/xlink">
    <!-- Generator: sketchtool 53.2 (72643) - https://sketchapp.com -->
    <title>88F0BFE8-FD59-4CF7-83C8-E3CB52914DC3</title>
    <desc>Created with sketchtool.</desc>
    <g id="Symbols" stroke="none" stroke-width="1" fill="none" fill-rule="evenodd">
        <g id="Form/Entity/Non-Profit" transform="translate(-23.000000, -48.000000)" fill="#737171">
            <g id="Individual">
                <g id="Icon/World" transform="translate(23.000000, 48.000000)">
                    <g id="world">
                        <path d="M11,0 C4.93441667,0 0,4.93441667 0,11 C0,17.0655833 4.93441667,22 11,22 C17.0655833,22 22,17.0655833 22,11 C22,4.93441667 17.0655833,0 11,0 Z M11,20.1666667 C8.70833333,20.1666667 6.61558333,19.3150833 5.00683333,17.9199167 C5.01416667,17.908 5.02425,17.8979167 5.03066667,17.886 C6.545,15.3486667 5.59258333,13.7985833 4.8895,13.1000833 C4.70433333,12.9158333 4.49258333,12.7480833 4.27441667,12.5794167 C3.70425,12.1366667 3.32658333,11.84425 3.32658333,11 C3.32658333,10.6021667 3.54841667,10.4463333 4.64383333,10.0723333 C5.39733333,9.81475 6.25075,9.52325 6.80166667,8.811 C8.08041667,7.15733333 6.67425,4.60716667 6.37908333,4.11216667 C6.22783333,3.85825 6.06375,3.61991667 5.89325,3.39166667 C7.271,2.464 8.9155,1.91033333 10.6828333,1.84891667 C10.9688333,2.33383333 11.4409167,2.74266667 11.90475,3.14141667 C12.30075,3.48241667 12.9295833,3.62541667 13.2531667,4.02875 C13.4383333,4.25975 13.3485,4.70525 13.3549167,4.99675 C13.36775,5.57516667 13.7179167,6.41391667 14.8985833,6.41391667 C14.9508333,6.41391667 15.0049167,6.41208333 15.0608333,6.40841667 C15.5173333,6.37633333 16.9418333,6.05 18.3736667,5.577 C19.4956667,7.09866667 20.1666667,8.9705 20.1666667,11 C20.1666667,16.0545 16.0545,20.1666667 11,20.1666667 Z" id="Shape" fill-rule="nonzero"></path>
                        <path d="M14.2211667,8.16108333 C12.7765,8.16108333 11.3015833,8.84766667 10.55175,9.86883333 C10.0485,10.5545 9.90183333,11.3474167 10.1383333,12.1018333 C10.6104167,13.607 10.65625,14.4943333 10.3610833,15.4889167 C10.0989167,16.3725833 10.07325,17.6540833 11.5701667,18.2645833 C11.8525,18.3800833 12.1623333,18.43875 12.4886667,18.43875 C13.6015,18.43875 14.91875,17.7503333 16.104,16.5485833 C17.5285,15.1048333 18.3663333,13.3356667 18.3461667,11.814 C18.3186667,9.76616667 16.5064167,8.16108333 14.2211667,8.16108333 Z" id="Path" fill-rule="nonzero"></path>
                    </g>
                </g>
            </g>
        </g>
    </g>
</svg>