<?xml version="1.0" encoding="UTF-8"?>
<svg width="24px" height="24px" viewBox="0 0 24 24" version="1.1" xmlns="http://www.w3.org/2000/svg" xmlns:xlink="http://www.w3.org/1999/xlink">
    <!-- Generator: sketchtool 53.2 (72643) - https://sketchapp.com -->
    <title>CF49BE9B-1673-4778-98DA-F3B78C3FF379</title>
    <desc>Created with sketchtool.</desc>
    <g id="OpenSolar" stroke="none" stroke-width="1" fill="none" fill-rule="evenodd" stroke-linecap="square">
        <g id="Account-Settting/UserProfile" transform="translate(-958.000000, -562.000000)" stroke="#737171" stroke-width="2">
            <g id="wallet-43-copy" transform="translate(959.000000, 563.000000)">
                <path d="M20,11 L20,4 L2,4 C0.895,4 0,3.105 0,2 L0,19 C0,20.657 1.343,22 3,22 L20,22 L20,15" id="Path"></path>
                <path d="M16,1 L16,0 L2,0 C0.895,0 0,0.895 0,2 L0,2 C0,3.105 0.895,4 2,4" id="Path"></path>
                <path d="M22,15 L17,15 C15.895,15 15,14.105 15,13 L15,13 C15,11.895 15.895,11 17,11 L22,11 L22,15 Z" id="Path"></path>
            </g>
        </g>
    </g>
</svg>